# File created by Blade
# Date/Time:  Wed Jan 21 17:57:11 2015
# Frame Rate: 120.000 fps
#------------------------------------------------------
:FULLY-SPECIFIED
:DEGREES
1294
root 20.092615 29.874459 -15.291773 -101.795926 35.275480 -171.869170
Spine 63.484751 -8.967034 7.143843
Head 149.823316 20.966050 185.000392
LeftShoulder 87.631664 -68.649928 -33.098909
LeftArm 46.562692 19.887213 -20.156021
LeftForeArm 35.497787 -0.000000 55.181748
LeftHand -10.348162 -0.000000 -34.353299
LeftHandThumb1 -26.253704 0.000000 33.147579
RightShoulder 21.339400 10.881269 -22.448747
RightArm 22.770993 53.217688 16.210885
RightForeArm 30.403057 -0.000000 50.866136
RightHand 11.992575 0.000000 20.223490
RightHandThumb1 -24.326973 -0.000000 -32.862282
LeftUpLeg -70.417134 46.429393 -20.849060
LeftLeg -5.424371 -0.000000 0.000000
LeftFoot -17.075818 13.618526 -26.748983
LeftToeBase 32.880158 -0.000000 -0.000000
RightUpLeg -96.228451 -12.963255 -17.437678
RightLeg 2.607852 -0.000000 -0.000000
RightFoot -1.427249 -11.732430 21.260960
RightToeBase 27.347939 -0.000000 -0.000000
1295
root 20.103350 29.868182 -15.294866 -101.609986 35.568104 -171.713275
Spine 63.466788 -8.848041 7.453712
Head 149.048002 21.138716 184.945396
LeftShoulder 87.445497 -68.837864 -32.671881
LeftArm 45.929199 19.478818 -19.749259
LeftForeArm 34.385341 -0.000000 56.280353
LeftHand -11.072026 -0.000000 -35.362035
LeftHandThumb1 -26.253704 0.000000 33.147579
RightShoulder 21.344269 10.905094 -22.556039
RightArm 23.209840 53.406338 16.310511
RightForeArm 31.195656 -0.000000 51.001954
RightHand 12.097880 -0.000000 20.618592
RightHandThumb1 -24.326973 -0.000000 -32.862282
LeftUpLeg -70.964601 46.685472 -21.636546
LeftLeg -5.248837 -0.000000 0.000000
LeftFoot -17.101007 13.304242 -26.756827
LeftToeBase 32.976068 -0.000000 -0.000000
RightUpLeg -96.462055 -12.770869 -17.475095
RightLeg 2.622159 -0.000000 -0.000000
RightFoot -1.344740 -11.782966 21.182911
RightToeBase 27.335392 -0.000000 -0.000000
1296
root 20.109455 29.860347 -15.297422 -101.508355 35.828630 -171.715765
Spine 63.432474 -8.894329 7.660662
Head 148.261891 21.472018 184.923006
LeftShoulder 86.721073 -69.041154 -31.744000
LeftArm 45.301756 19.002704 -19.292891
LeftForeArm 33.798458 -0.000000 57.594364
LeftHand -11.750228 0.000000 -36.026652
LeftHandThumb1 -26.253704 0.000000 33.147579
RightShoulder 21.441906 11.285851 -22.545764
RightArm 23.562362 53.325726 16.408458
RightForeArm 31.545542 -0.000000 51.182841
RightHand 12.200423 -0.000000 21.118891
RightHandThumb1 -24.326973 -0.000000 -32.862282
LeftUpLeg -71.166483 46.717512 -22.056775
LeftLeg -5.184649 -0.000000 0.000000
LeftFoot -17.155477 13.288821 -26.722596
LeftToeBase 32.945289 -0.000000 -0.000000
RightUpLeg -96.653317 -12.743686 -17.528271
RightLeg 2.641114 -0.000000 -0.000000
RightFoot -1.265384 -11.633501 21.041945
RightToeBase 27.315497 -0.000000 -0.000000
1297
root 20.114336 29.852475 -15.308487 -101.446336 36.096222 -171.762509
Spine 63.326930 -8.842794 8.060350
Head 147.315440 21.907895 185.001926
LeftShoulder 87.573713 -69.112181 -32.297261
LeftArm 44.120161 18.732962 -19.292553
LeftForeArm 33.587006 -0.000000 59.196653
LeftHand -12.090897 -0.000000 -36.748026
LeftHandThumb1 -26.253704 0.000000 33.147579
RightShoulder 21.423258 11.004904 -22.550815
RightArm 23.950868 53.675860 16.256370
RightForeArm 32.213503 -0.000000 51.361862
RightHand 12.391819 -0.000000 21.463999
RightHandThumb1 -24.326973 -0.000000 -32.862282
LeftUpLeg -71.186106 46.693431 -22.348893
LeftLeg -5.205721 -0.000000 0.000000
LeftFoot -17.221353 13.344513 -26.728692
LeftToeBase 32.922451 -0.000000 -0.000000
RightUpLeg -96.778256 -12.785422 -17.645865
RightLeg 2.621226 -0.000000 -0.000000
RightFoot -1.192796 -11.371930 20.946563
RightToeBase 27.334110 -0.000000 -0.000000
1298
root 20.134073 29.844364 -15.301461 -101.281724 36.393560 -171.534787
Spine 63.400297 -8.500856 8.307835
Head 146.434037 23.206252 185.142656
LeftShoulder 87.566620 -69.329254 -31.967980
LeftArm 43.195923 18.271418 -19.182237
LeftForeArm 33.032617 -0.000000 60.799542
LeftHand -12.443208 -0.000000 -37.172820
LeftHandThumb1 -26.253704 0.000000 33.147579
RightShoulder 21.380747 11.123896 -22.341754
RightArm 24.388232 53.715823 16.206750
RightForeArm 33.003086 0.000000 51.676215
RightHand 12.382516 -0.000000 21.887330
RightHandThumb1 -24.326973 -0.000000 -32.862282
LeftUpLeg -71.250092 46.937191 -22.586223
LeftLeg -5.154629 -0.000000 0.000000
LeftFoot -17.338370 13.320077 -26.728543
LeftToeBase 33.020204 -0.000000 -0.000000
RightUpLeg -96.972261 -12.503823 -17.809180
RightLeg 2.692200 -0.000000 -0.000000
RightFoot -1.240970 -11.571968 21.028605
RightToeBase 27.428608 -0.000000 -0.000000
1299
root 20.135257 29.836607 -15.303472 -101.229354 36.678884 -171.564302
Spine 63.364582 -8.387951 8.583378
Head 145.434093 24.662796 185.112409
LeftShoulder 87.456192 -69.507504 -31.610893
LeftArm 42.262637 17.755455 -19.058218
LeftForeArm 32.194465 -0.000000 62.350290
LeftHand -12.541618 -0.000000 -36.973889
LeftHandThumb1 -26.253704 0.000000 33.147579
RightShoulder 21.338846 11.117550 -22.236004
RightArm 24.772252 53.822527 16.132014
RightForeArm 33.981118 0.000000 52.026171
RightHand 12.570527 -0.000000 22.371709
RightHandThumb1 -24.326973 -0.000000 -32.862282
LeftUpLeg -71.191928 46.919718 -22.774113
LeftLeg -5.164721 -0.000000 0.000000
LeftFoot -17.529075 13.391442 -26.809532
LeftToeBase 33.160220 -0.000000 -0.000000
RightUpLeg -97.168018 -12.478662 -17.850957
RightLeg 2.749039 -0.000000 -0.000000
RightFoot -1.202411 -11.483603 20.702976
RightToeBase 27.658922 -0.000000 -0.000000
1300
root 20.132199 29.831678 -15.304787 -101.229982 36.982013 -171.621067
Spine 63.376312 -8.290466 8.819564
Head 144.705313 25.517914 185.308100
LeftShoulder 87.463904 -69.723551 -31.318528
LeftArm 41.074207 17.147603 -19.127610
LeftForeArm 31.178829 -0.000000 64.029060
LeftHand -12.697353 0.000000 -36.884128
LeftHandThumb1 -26.253704 0.000000 33.147579
RightShoulder 21.250135 10.985359 -22.207822
RightArm 25.280275 54.076097 16.205091
RightForeArm 35.116612 -0.000000 52.528041
RightHand 12.445813 -0.000000 22.556789
RightHandThumb1 -24.326973 -0.000000 -32.862282
LeftUpLeg -71.081873 46.891941 -22.949539
LeftLeg -5.159370 -0.000000 0.000000
LeftFoot -17.621439 13.457634 -26.716278
LeftToeBase 32.828387 -0.000000 -0.000000
RightUpLeg -97.328252 -12.473909 -17.955135
RightLeg 2.838410 -0.000000 -0.000000
RightFoot -1.067897 -11.389804 20.772537
RightToeBase 27.295183 -0.000000 -0.000000
1301
root 20.130434 29.822377 -15.301411 -101.260733 37.266115 -171.665962
Spine 63.473311 -8.155235 9.036701
Head 144.033231 27.331445 185.167830
LeftShoulder 87.485928 -70.044339 -31.009620
LeftArm 39.937725 16.540208 -19.203966
LeftForeArm 29.959476 -0.000000 65.619528
LeftHand -12.759546 0.000000 -36.541802
LeftHandThumb1 -26.253704 0.000000 33.147579
RightShoulder 21.056092 10.915315 -22.156448
RightArm 25.945526 54.290759 16.452872
RightForeArm 36.028422 -0.000000 53.047090
RightHand 12.313497 -0.000000 22.469055
RightHandThumb1 -24.326973 -0.000000 -32.862282
LeftUpLeg -70.943841 46.891717 -23.070034
LeftLeg -5.118376 -0.000000 0.000000
LeftFoot -17.720392 13.396485 -26.708931
LeftToeBase 32.530381 -0.000000 -0.000000
RightUpLeg -97.482774 -12.450683 -18.000205
RightLeg 2.932704 -0.000000 -0.000000
RightFoot -0.929834 -11.178699 20.788978
RightToeBase 27.199809 -0.000000 -0.000000
1302
root 20.131506 29.816137 -15.297262 -101.329440 37.531946 -171.680032
Spine 63.637933 -8.006484 9.217712
Head 143.210137 28.957441 185.015585
LeftShoulder 87.595348 -70.422477 -30.763678
LeftArm 38.696507 15.955674 -19.355136
LeftForeArm 28.271201 -0.000000 67.102843
LeftHand -12.689033 -0.000000 -35.664040
LeftHandThumb1 -26.253704 0.000000 33.147579
RightShoulder 20.931472 10.944973 -22.127426
RightArm 26.494819 54.506948 16.753544
RightForeArm 37.223941 -0.000000 53.593673
RightHand 12.141086 0.000000 22.557901
RightHandThumb1 -24.326973 -0.000000 -32.862282
LeftUpLeg -70.814515 46.960956 -23.216311
LeftLeg -5.096842 -0.000000 0.000000
LeftFoot -17.743275 13.372665 -26.644099
LeftToeBase 32.311504 -0.000000 -0.000000
RightUpLeg -97.592683 -12.361238 -18.035640
RightLeg 3.027198 -0.000000 -0.000000
RightFoot -0.811916 -11.039056 20.539106
RightToeBase 27.585591 -0.000000 -0.000000
1303
root 20.125609 29.809640 -15.291780 -101.372581 37.833903 -171.758584
Spine 63.657963 -7.914756 9.285386
Head 142.277006 29.914516 185.092156
LeftShoulder 87.355531 -70.591205 -30.185864
LeftArm 37.493556 15.319427 -19.352812
LeftForeArm 26.763364 -0.000000 68.500201
LeftHand -12.587001 0.000000 -34.898943
LeftHandThumb1 -26.253704 0.000000 33.147579
RightShoulder 20.970584 10.977054 -21.987227
RightArm 26.995658 54.705604 16.923016
RightForeArm 38.325588 -0.000000 53.957174
RightHand 11.684171 -0.000000 23.038093
RightHandThumb1 -24.326973 -0.000000 -32.862282
LeftUpLeg -70.766387 46.961644 -23.490428
LeftLeg -5.099452 -0.000000 0.000000
LeftFoot -17.769021 13.332421 -26.674350
LeftToeBase 32.212352 -0.000000 -0.000000
RightUpLeg -97.796187 -12.342215 -18.066441
RightLeg 3.149877 -0.000000 -0.000000
RightFoot -0.736997 -11.007744 20.283889
RightToeBase 27.825648 -0.000000 -0.000000
1304
root 20.121013 29.804503 -15.277619 -101.356260 38.097936 -171.804173
Spine 63.626976 -7.703056 9.498751
Head 141.321144 31.323236 185.065646
LeftShoulder 87.883312 -70.887029 -30.266644
LeftArm 36.184790 14.812599 -19.709856
LeftForeArm 25.667935 0.000000 69.805133
LeftHand -12.278477 0.000000 -33.965000
LeftHandThumb1 -26.253704 0.000000 33.147579
RightShoulder 20.831666 10.794014 -21.850793
RightArm 27.662394 55.110515 17.241653
RightForeArm 39.455009 -0.000000 54.180461
RightHand 11.146511 0.000000 23.249700
RightHandThumb1 -24.326973 -0.000000 -32.862282
LeftUpLeg -70.862297 46.977301 -23.827449
LeftLeg -5.070913 -0.000000 0.000000
LeftFoot -17.758437 13.290513 -26.702232
LeftToeBase 32.164224 -0.000000 -0.000000
RightUpLeg -98.057362 -12.316102 -18.141966
RightLeg 3.318412 -0.000000 -0.000000
RightFoot -0.545167 -10.998009 20.354511
RightToeBase 27.839707 -0.000000 -0.000000
1305
root 20.110278 29.799001 -15.269967 -101.462753 38.362484 -171.921769
Spine 63.721512 -7.630820 9.612695
Head 140.485190 32.602409 185.000156
LeftShoulder 83.883615 -70.859723 -26.005277
LeftArm 36.168544 13.168630 -19.146979
LeftForeArm 24.492964 -0.000000 70.486400
LeftHand -11.875851 -0.000000 -32.970071
LeftHandThumb1 -26.253704 0.000000 33.147579
RightShoulder 20.768150 10.693478 -21.779133
RightArm 28.336620 55.599950 17.665058
RightForeArm 40.510600 -0.000000 54.316033
RightHand 10.876176 -0.000000 23.080423
RightHandThumb1 -24.326973 -0.000000 -32.862282
LeftUpLeg -70.754140 46.953362 -24.040600
LeftLeg -5.110838 -0.000000 0.000000
LeftFoot -17.736821 13.315623 -26.735253
LeftToeBase 32.194257 -0.000000 -0.000000
RightUpLeg -98.234791 -12.299706 -18.120820
RightLeg 3.439679 -0.000000 -0.000000
RightFoot -0.324885 -10.986074 20.208086
RightToeBase 28.194431 -0.000000 -0.000000
